<svg preserveAspectRatio="none" width="100%" height="100%" overflow="visible" style="display: block;" viewBox="0 0 195 49" fill="none" xmlns="http://www.w3.org/2000/svg">
<g id="Bees-Care-Logo-Dark-01 1">
<path id="Vector" d="M1.67895 34.9919L1.68578 13.9969L19.7774 3.50497L37.8636 14.0081L37.8573 35.0032L19.7642 45.495L1.67895 34.9919Z" fill="var(--fill-0, #C2986B)"/>
<path id="Vector_2" d="M33.4495 18.4805L33.4433 18.407C33.2983 17.5043 32.3854 15.7988 29.9679 15.7988C28.2487 15.7988 26.03 16.6503 23.3623 18.3334C23.503 17.656 23.4503 16.9525 23.2102 16.3039C22.9701 15.6554 22.5524 15.0883 22.0054 14.6682L22.4619 14.0941C22.6546 13.8461 22.7872 13.7965 22.8257 13.7949C22.9276 13.853 23.0477 13.8697 23.1614 13.8416C23.2751 13.8136 23.3738 13.7428 23.4373 13.6439C23.5008 13.545 23.5243 13.4254 23.5029 13.3097C23.4814 13.194 23.4168 13.0909 23.3222 13.0216C23.0586 12.8294 22.3894 12.6876 21.7418 13.5229L21.2083 14.1942C20.754 13.9994 20.2652 13.899 19.7713 13.899C19.2773 13.899 18.7885 13.9994 18.3342 14.1942L17.8053 13.5286C17.1531 12.6878 16.4855 12.8296 16.2219 13.0218C16.1269 13.0909 16.0619 13.1941 16.0402 13.31C16.0186 13.4259 16.042 13.5458 16.1056 13.6449C16.1692 13.744 16.2682 13.8148 16.3822 13.8427C16.4962 13.8707 16.6165 13.8536 16.7184 13.7951C16.7553 13.7967 16.8895 13.847 17.0853 14.0989L17.5371 14.6684C16.9901 15.0886 16.5725 15.6557 16.3324 16.3042C16.0923 16.9527 16.0395 17.6563 16.1802 18.3336C13.5128 16.6506 11.2955 15.799 9.5764 15.799C7.15869 15.799 6.24589 17.5046 6.09945 18.4073L6.09326 18.4808C6.09402 19.2639 6.32041 20.03 6.74507 20.6865C7.16974 21.343 7.77449 21.8618 8.48625 22.1803C8.1355 22.3869 7.84229 22.6792 7.63376 23.03C7.30655 23.6312 7.22791 24.3377 7.41482 24.9967L7.43642 25.0517C7.84967 25.9328 8.71308 26.3791 10.0037 26.3791C11.6566 26.3791 13.6394 25.6453 14.7264 25.2399C14.6786 25.7367 14.6524 26.2412 14.6524 26.7495C14.6524 31.2586 16.4842 34.8851 18.9527 35.5484L19.7717 37.4515L20.592 35.5483C23.0587 34.885 24.8923 31.2585 24.8923 26.7494C24.8923 26.2387 24.8645 25.732 24.8168 25.2329C24.8399 25.2415 24.8599 25.2484 24.8831 25.2574C25.9485 25.6472 27.9328 26.3741 29.5549 26.3741C30.8377 26.3741 31.6966 25.9293 32.1067 25.0513L32.1283 24.9963C32.316 24.3376 32.2378 23.6311 31.9107 23.03C31.7011 22.6793 31.4075 22.3871 31.0565 22.1799C31.7683 21.8615 32.373 21.3427 32.7976 20.6862C33.2223 20.0297 33.4487 19.2636 33.4495 18.4805ZM20.1476 14.8451C20.8024 14.9389 21.402 15.2654 21.8377 15.7656C22.2733 16.2657 22.5162 16.9063 22.5221 17.5711C22.5277 18.2089 22.3111 18.8285 21.91 19.3228L20.1724 21.4777C20.1554 21.446 20.1477 21.4287 20.1477 21.4282L19.7528 20.3914L19.3043 21.3948L17.6632 19.3585C17.37 19.0051 17.1676 18.5847 17.0738 18.1344C16.9873 17.7014 17.0051 17.2539 17.1257 16.8292C17.2463 16.4046 17.4662 16.0151 17.767 15.6932C18.0678 15.3713 18.4408 15.1264 18.8549 14.9788C19.269 14.8313 19.7123 14.7855 20.1476 14.8451ZM23.8575 24.9075C23.8636 24.9524 23.8683 24.9974 23.8744 25.0415C20.5838 23.9404 17.084 24.6765 15.6655 25.0678C15.6732 25.0113 15.6809 24.9539 15.6871 24.8974C18.0183 24.0541 19.1734 23.0524 19.7128 22.4126C20.2525 23.0647 21.426 24.0822 23.8575 24.9075ZM17.1641 32.957C16.8572 32.4795 16.6004 31.9713 16.3977 31.4406C18.5843 30.6856 20.959 30.6865 23.145 31.4429C22.9269 32.0163 22.6445 32.5628 22.3031 33.0718C20.6484 32.4713 18.8437 32.431 17.1641 32.957ZM16.0987 30.5658C15.933 29.9983 15.8073 29.4199 15.7224 28.8347C16.9837 28.4819 20.6179 27.6646 23.8219 28.8363C23.7362 29.4228 23.6094 30.0026 23.4426 30.5712C21.0657 29.7346 18.4768 29.7327 16.0987 30.5658ZM15.616 27.9055C15.5852 27.5266 15.5698 27.1412 15.5698 26.7494C15.5698 26.5155 15.5759 26.283 15.5867 26.052C16.6259 25.7421 20.5453 24.7378 23.956 26.0505C23.9668 26.2822 23.9746 26.5155 23.9746 26.7494C23.9746 27.1384 23.9576 27.522 23.9283 27.8979C20.6212 26.7703 17.0561 27.5119 15.616 27.9055ZM10.0035 25.4577C9.1045 25.4577 8.54022 25.2058 8.28121 24.6905C8.17987 24.2887 8.23098 23.8633 8.42458 23.4972C8.59908 23.2522 8.82333 23.0471 9.0825 22.8956C9.34168 22.7441 9.62988 22.6496 9.92808 22.6184L12.2579 22.1504L9.92194 21.7143C9.80323 21.6919 7.04018 21.1455 7.01093 18.5241C7.06797 18.2675 7.49038 16.7201 9.57659 16.7201C11.3901 16.7201 13.8923 17.8212 17.0177 19.9925L19.2287 21.5291C18.9789 21.9189 17.9752 23.1757 14.9546 24.1777C14.8313 24.218 14.657 24.2831 14.4428 24.3629C13.4174 24.7455 11.5086 25.4577 10.0035 25.4577ZM17.7777 33.7459C19.0611 33.417 20.4096 33.4475 21.677 33.8341C21.4346 34.1037 21.1413 34.3222 20.8142 34.4771C20.4871 34.6319 20.1326 34.7199 19.7714 34.7361C19.3894 34.7169 19.0154 34.6192 18.6725 34.4488C18.3296 34.2785 18.0249 34.0393 17.7777 33.7459ZM29.6209 21.7142L27.2866 22.1503L29.6164 22.6183C29.913 22.6499 30.1996 22.7437 30.4578 22.8938C30.7159 23.0438 30.9399 23.2467 31.1151 23.4893C31.3115 23.8572 31.3637 24.2857 31.2613 24.6904C31.0039 25.2033 30.4456 25.4529 29.5544 25.4529C28.0943 25.4529 26.2086 24.7616 25.1956 24.3912C24.9335 24.2951 24.7222 24.2184 24.5803 24.1743C21.5398 23.2335 20.5146 22.0108 20.2367 21.583L22.5264 19.9922C25.6502 17.8209 28.1543 16.7198 29.9675 16.7198C32.0583 16.7198 32.4777 18.275 32.5318 18.523C32.5027 21.1306 29.7381 21.6917 29.6209 21.7142Z" fill="var(--fill-0, white)"/>
<path id="Vector_3" d="M70.7557 26.6308C70.7694 27.6649 70.5778 28.6915 70.1921 29.6504C69.8065 30.6092 69.2345 31.4812 68.5098 32.2154C67.785 32.9496 66.9218 33.5311 65.9709 33.9261C65.0199 34.3211 64.0001 34.5216 62.9711 34.5159C61.6453 34.5446 60.338 34.2006 59.1962 33.5227C58.0544 32.8449 57.1236 31.8601 56.5086 30.6792V34.1837H55.0058V13.0357H56.5086V22.5825C57.1236 21.4017 58.0544 20.4169 59.1962 19.739C60.338 19.0612 61.6453 18.7172 62.9711 18.7458C64.0001 18.7401 65.0198 18.9406 65.9708 19.3356C66.9218 19.7306 67.7849 20.3122 68.5097 21.0463C69.2345 21.7804 69.8064 22.6524 70.192 23.6112C70.5777 24.5701 70.7693 25.5966 70.7557 26.6308ZM69.2529 26.6308C69.247 25.3653 68.8683 24.1299 68.1645 23.0806C67.4607 22.0313 66.4634 21.2151 65.2985 20.7349C64.1336 20.2548 62.8533 20.1322 61.6192 20.3828C60.3851 20.6333 59.2525 21.2457 58.3643 22.1427C57.4762 23.0396 56.8723 24.1809 56.6288 25.4225C56.3854 26.6641 56.5133 27.9504 56.9965 29.119C57.4797 30.2875 58.2965 31.2861 59.3438 31.9885C60.391 32.6909 61.6218 33.0658 62.8809 33.0658C63.722 33.0721 64.5559 32.9098 65.3338 32.5883C66.1118 32.2668 66.8181 31.7925 67.4114 31.1933C68.0048 30.5941 68.4733 29.8819 68.7895 29.0985C69.1057 28.3151 69.2632 27.4761 69.2529 26.6308Z" fill="var(--fill-0, black)"/>
<path id="Vector_4" d="M88.5784 26.6912C88.5784 26.9329 88.5485 27.1748 88.5485 27.4164H74.9326C75.2934 30.8304 77.8782 33.0658 81.3047 33.0658C83.7694 33.0658 85.6329 31.9179 86.5045 30.3167L87.8271 31.1023C86.5947 33.1565 84.2502 34.516 81.2747 34.516C76.6459 34.516 73.3697 31.1927 73.3697 26.6308C73.3697 22.1899 76.5556 18.7458 81.1544 18.7458C85.7228 18.7458 88.5784 22.5523 88.5784 26.6912ZM74.9325 25.9357H87.0155C86.6847 22.2501 84.0999 20.1957 81.1543 20.1957C79.5779 20.1502 78.0459 20.7243 76.8841 21.7962C75.7223 22.8681 75.0221 24.3531 74.9325 25.9357Z" fill="var(--fill-0, black)"/>
<path id="Vector_5" d="M106.281 26.6912C106.281 26.9329 106.251 27.1748 106.251 27.4164H92.6348C92.9955 30.8304 95.5803 33.0658 99.0068 33.0658C101.471 33.0658 103.335 31.9179 104.207 30.3167L105.529 31.1023C104.297 33.1565 101.952 34.516 98.9766 34.516C94.348 34.516 91.0718 31.1927 91.0718 26.6308C91.0718 22.1899 94.2577 18.7458 98.8565 18.7458C103.425 18.7458 106.281 22.5523 106.281 26.6912ZM92.6348 25.9357H104.718C104.387 22.2501 101.802 20.1957 98.8565 20.1957C97.2801 20.1502 95.7482 20.7244 94.5864 21.7962C93.4245 22.8681 92.7244 24.3531 92.6348 25.9357Z" fill="var(--fill-0, black)"/>
<path id="Vector_6" d="M108.173 13.0357H109.797L109.586 18.6854H108.384L108.173 13.0357Z" fill="var(--fill-0, black)"/>
<path id="Vector_7" d="M122.721 30.2259C122.721 32.7032 120.557 34.5159 117.341 34.5159C114.335 34.5159 112.351 33.0961 111.63 31.1626L112.922 30.4073C113.463 32.0387 115.086 33.0658 117.341 33.0658C119.445 33.0658 121.218 32.1293 121.218 30.2259C121.218 26.1173 112.111 28.4738 112.111 23.0356C112.111 20.649 114.154 18.7458 117.22 18.7458C119.655 18.7458 121.518 19.9238 122.33 21.7669L121.068 22.4921C120.436 20.9211 118.873 20.1962 117.22 20.1962C115.266 20.1962 113.613 21.2233 113.613 23.0358C113.613 27.0841 122.721 24.6972 122.721 30.2259Z" fill="var(--fill-0, black)"/>
<path id="Vector_8" d="M133.359 26.6308C133.339 25.5846 133.53 24.5451 133.921 23.5752C134.312 22.6054 134.894 21.7253 135.633 20.9882C136.372 20.2511 137.252 19.6723 138.22 19.2869C139.188 18.9015 140.224 18.7174 141.264 18.7458C144.21 18.7458 146.735 20.2563 147.817 22.6128L146.585 23.338C145.713 21.4348 143.669 20.1961 141.264 20.1961C139.571 20.2028 137.949 20.8837 136.754 22.0897C135.558 23.2958 134.887 24.9287 134.887 26.6311C134.887 28.3334 135.558 29.9663 136.754 31.1724C137.949 32.3784 139.571 33.0593 141.264 33.066C142.366 33.0919 143.454 32.8125 144.408 32.2583C145.363 31.7041 146.147 30.8966 146.675 29.9242L147.937 30.6794C147.283 31.8731 146.314 32.8626 145.137 33.5394C143.96 34.2161 142.62 34.5541 141.265 34.5161C140.224 34.5445 139.188 34.3604 138.22 33.975C137.252 33.5895 136.372 33.0107 135.633 32.2736C134.894 31.5365 134.312 30.6564 133.921 29.6864C133.53 28.7165 133.339 27.677 133.359 26.6308Z" fill="var(--fill-0, black)"/>
<path id="Vector_9" d="M165.85 19.0781V34.1837H164.318V30.7697C163.681 31.9259 162.743 32.8857 161.605 33.5458C160.466 34.2059 159.17 34.5414 157.855 34.5159C155.786 34.4995 153.806 33.6616 152.348 32.1846C150.89 30.7077 150.072 28.7114 150.072 26.6309C150.072 24.5503 150.89 22.5541 152.348 21.0771C153.806 19.6002 155.786 18.7622 157.855 18.7458C159.17 18.7204 160.466 19.0558 161.605 19.7159C162.743 20.376 163.681 21.3357 164.318 22.4918V19.0781H165.85ZM164.318 26.6308C164.309 25.3683 163.928 24.1367 163.223 23.0916C162.519 22.0464 161.522 21.2344 160.359 20.7582C159.195 20.2819 157.918 20.1627 156.687 20.4156C155.456 20.6685 154.328 21.2821 153.444 22.1791C152.56 23.076 151.96 24.2161 151.72 25.4553C151.48 26.6946 151.611 27.9775 152.096 29.1422C152.581 30.3069 153.398 31.3011 154.444 31.9994C155.491 32.6977 156.72 33.0688 157.976 33.0658C158.815 33.0715 159.647 32.9086 160.423 32.5865C161.199 32.2643 161.903 31.7896 162.494 31.1901C163.085 30.5906 163.551 29.8784 163.864 29.0954C164.177 28.3125 164.331 27.4745 164.318 26.6308Z" fill="var(--fill-0, black)"/>
<path id="Vector_10" d="M177.001 18.8666V20.3167C174.415 20.3167 171.981 21.9179 171.981 25.7851V34.1837H170.478V19.0781H171.981V22.0387C173.003 19.6519 174.956 18.8666 177.001 18.8666Z" fill="var(--fill-0, black)"/>
<path id="Vector_11" d="M193.321 26.6912C193.321 26.9329 193.29 27.1748 193.29 27.4164H179.675C180.035 30.8304 182.62 33.0658 186.046 33.0658C188.511 33.0658 190.375 31.9179 191.246 30.3167L192.569 31.1023C191.336 33.1565 188.992 34.516 186.016 34.516C181.388 34.516 178.111 31.1927 178.111 26.6308C178.111 22.1899 181.297 18.7458 185.896 18.7458C190.465 18.7458 193.321 22.5523 193.321 26.6912ZM179.675 25.9357H191.758C191.427 22.2501 188.842 20.1957 185.896 20.1957C184.32 20.1502 182.788 20.7244 181.626 21.7962C180.465 22.8681 179.764 24.3531 179.675 25.9357Z" fill="var(--fill-0, black)"/>
</g>
</svg>
